<svg fill="none" xmlns="http://www.w3.org/2000/svg" viewBox="0 0 60 60" id="logo">
        <g clip-path="url(#clip0_338_370)">
        <path fill-rule="evenodd" clip-rule="evenodd" d="M23.2501 19.4888C21.4294 18.2687 17.6329 18.4237 13.7885 20.0551C9.33147 21.9465 6.76525 26.3295 7.27121 28.5998C7.27121 28.5998 8.32132 31.1749 7.3706 28.9987L9.61949 34.5534L27.6037 31.4153L24.2283 20.4587L24.1411 20.4891C23.9515 20.0895 23.6495 19.7565 23.2501 19.4888L23.2501 19.4888Z" fill="white"></path>
        <path fill-rule="evenodd" clip-rule="evenodd" d="M26.6651 26.7324L26.8794 25.9332L24.3034 21.3401C24.3034 21.3401 22.3343 19.5275 18.8042 19.9137C15.2741 20.2999 14.8357 21.6072 14.8357 21.6072L16.7286 26.1625L26.6651 26.7324L26.6651 26.7324Z" fill="#003A7E"></path>
        <path fill-rule="evenodd" clip-rule="evenodd" d="M36.2312 7.31766C33.6637 7.18138 31.2957 7.27171 27.935 9.80775C24.0389 12.7479 22.0264 16.6295 23.1779 18.7799L23.1712 18.7942L23.257 18.9214C23.3089 19.005 23.3661 19.0982 23.4285 19.1758C23.4545 19.2081 23.4852 19.2365 23.5127 19.2673L27.9238 25.2828L44.7891 22.1619L46.4452 19.5473C45.7203 17.1126 45.4323 16.134 43.5022 11.6977C41.576 8.24191 38.601 7.81103 36.2312 7.31766L36.2312 7.31766Z" fill="white"></path>
        <path fill-rule="evenodd" clip-rule="evenodd" d="M44.2766 17.0854L44.6196 16.3486L42.4163 11.9311C42.4163 11.9311 40.6326 8.77183 36.8058 8.38479C32.979 7.99776 32.1794 9.2192 32.1794 9.2192L33.7416 14.372L44.2766 17.0854Z" fill="#003A7E"></path>
        <path fill-rule="evenodd" clip-rule="evenodd" d="M35.6884 9.85429L4.72418 33.6833L10.9691 50.3502L28.1726 55.5501L55.0194 34.2419L55.2758 34.0266L50.8784 21.0074L35.6884 9.85429Z" fill="#003A7E" stroke="white" stroke-width="0.999998"></path>
        <path fill-rule="evenodd" clip-rule="evenodd" d="M35.6887 9.85428L4.72454 33.5318L10.9694 50.3502L11.0061 50.3673L11.3857 50.0311L41.6452 25.8315L35.6887 9.85428Z" fill="white"></path>
        <path fill-rule="evenodd" clip-rule="evenodd" d="M41.3713 28.3113L15.9996 48.8665L27.7835 52.5689L50.8401 34.2491L41.3713 28.3113Z" fill="white" stroke="#003A7E" stroke-width="0.539117"></path>
        </g>
        <defs>
        <clipPath id="clip0_338_370">
            <rect width="60" height="60" fill="white"></rect>
        </clipPath>
        </defs>
    </svg>