<svg width="0" height="0" class="hidden">
    <symbol xmlns="http://www.w3.org/2000/svg" viewBox="0 0 48 48" id="arrow">
        <path d="M24 40 21.9 37.85 34.25 25.5H8V22.5H34.25L21.9 10.15L24 8L40 24Z"/>
    </symbol>
    <symbol xmlns="http://www.w3.org/2000/svg" viewBox="0 0 64 64" id="bath">
        <path d="M54 38V45.52C54 47.2386 53.3173 48.8868 52.1021 50.1021C50.8868 51.3173 49.2386 52 47.52 52H16.48C14.7614 52 13.1132 51.3173 11.8979 50.1021C10.6827 48.8868 10 47.2386 10 45.52V38H54ZM10 34C8.93913 34 7.92172 34.4214 7.17157 35.1716C6.42143 35.9217 6 36.9391 6 38V45.52C6.01054 48.2962 7.11806 50.9557 9.08116 52.9188C11.0443 54.8819 13.7038 55.9895 16.48 56H47.52C50.2962 55.9895 52.9557 54.8819 54.9188 52.9188C56.8819 50.9557 57.9895 48.2962 58 45.52V38C58 36.9391 57.5786 35.9217 56.8284 35.1716C56.0783 34.4214 55.0609 34 54 34H10Z"></path>
        <path d="M44 54V58C44 58.5304 44.2107 59.0391 44.5858 59.4142C44.9609 59.7893 45.4696 60 46 60C46.5304 60 47.0391 59.7893 47.4142 59.4142C47.7893 59.0391 48 58.5304 48 58V54H44ZM16 54V58C16 58.5304 16.2107 59.0391 16.5858 59.4142C16.9609 59.7893 17.4696 60 18 60C18.5304 60 19.0391 59.7893 19.4142 59.4142C19.7893 59.0391 20 58.5304 20 58V54H16Z"></path>
        <path d="M38.0995 3.99992C36.9012 3.85313 35.6856 3.95058 34.5259 4.28639C33.3663 4.6222 32.2867 5.1894 31.3522 5.9538C30.4177 6.7182 29.6478 7.66395 29.0887 8.73401C28.5297 9.80407 28.1932 10.9763 28.0995 12.1799C26.56 12.5587 25.1677 13.3864 24.0994 14.5579C23.0311 15.7295 22.3351 17.192 22.0995 18.7599C22.0765 18.905 22.0851 19.0533 22.1246 19.1947C22.1642 19.3361 22.2338 19.4674 22.3288 19.5794C22.4237 19.6914 22.5417 19.7817 22.6748 19.8439C22.8078 19.9061 22.9527 19.9389 23.0995 19.9399H36.9395C37.0864 19.9389 37.2313 19.9061 37.3643 19.8439C37.4974 19.7817 37.6154 19.6914 37.7103 19.5794C37.8053 19.4674 37.8749 19.3361 37.9145 19.1947C37.954 19.0533 37.9626 18.905 37.9395 18.7599C37.7037 17.2405 37.035 15.8212 36.0135 14.672C34.9919 13.5228 33.6608 12.6923 32.1795 12.2799C32.3108 11.1144 32.8626 10.0367 33.7315 9.2488C34.6004 8.46091 35.7268 8.01688 36.8995 7.99992C38.27 8.03139 39.5731 8.6007 40.5274 9.58488C41.4816 10.5691 42.0104 11.8891 41.9995 13.2599V33.9999H45.9995V13.3799C46.0489 11.1231 45.2739 8.92563 43.8197 7.19902C42.3656 5.47242 40.3319 4.33507 38.0995 3.99992V3.99992Z"></path>
    </symbol>
    <symbol xmlns="http://www.w3.org/2000/svg" viewBox="0 0 64 64" id="bed">
        <path d="M56 28V10C56 9.46957 55.7893 8.96086 55.4142 8.58579C55.0391 8.21071 54.5304 8 54 8C53.4696 8 52.9609 8.21071 52.5858 8.58579C52.2107 8.96086 52 9.46957 52 10V14H12V10C12 9.46957 11.7893 8.96086 11.4142 8.58579C11.0391 8.21071 10.5304 8 10 8C9.46957 8 8.96086 8.21071 8.58579 8.58579C8.21071 8.96086 8 9.46957 8 10V28C6.93913 28 5.92172 28.4214 5.17157 29.1716C4.42143 29.9217 4 30.9391 4 32V54C4 54.5304 4.21071 55.0391 4.58579 55.4142C4.96086 55.7893 5.46957 56 6 56C6.53043 56 7.03914 55.7893 7.41421 55.4142C7.78929 55.0391 8 54.5304 8 54V46H56V54C56 54.5304 56.2107 55.0391 56.5858 55.4142C56.9609 55.7893 57.4696 56 58 56C58.5304 56 59.0391 55.7893 59.4142 55.4142C59.7893 55.0391 60 54.5304 60 54V32C60 30.9391 59.5786 29.9217 58.8284 29.1716C58.0783 28.4214 57.0609 28 56 28ZM34 18H52V28H34V18ZM12 18H30V28H12V18ZM56 42H8V32H56V42Z"></path>
    </symbol>
    <symbol xmlns="http://www.w3.org/2000/svg" viewBox="0 0 64 64" id="block">
        <path d="M48 4H16C14.9391 4 13.9217 4.42143 13.1716 5.17157C12.4214 5.92172 12 6.93913 12 8V56C12 57.0609 12.4214 58.0783 13.1716 58.8284C13.9217 59.5786 14.9391 60 16 60H48C49.0609 60 50.0783 59.5786 50.8284 58.8284C51.5786 58.0783 52 57.0609 52 56V8C52 6.93913 51.5786 5.92172 50.8284 5.17157C50.0783 4.42143 49.0609 4 48 4ZM30 56V46H34V56H30ZM48 56H38V43C38 42.7348 37.8946 42.4804 37.7071 42.2929C37.5196 42.1054 37.2652 42 37 42H27C26.7348 42 26.4804 42.1054 26.2929 42.2929C26.1054 42.4804 26 42.7348 26 43V56H16V8H48V56Z"></path>
        <path d="M29 26H23C22.4477 26 22 26.4477 22 27V33C22 33.5523 22.4477 34 23 34H29C29.5523 34 30 33.5523 30 33V27C30 26.4477 29.5523 26 29 26Z"></path>
        <path d="M41 26H35C34.4477 26 34 26.4477 34 27V33C34 33.5523 34.4477 34 35 34H41C41.5523 34 42 33.5523 42 33V27C42 26.4477 41.5523 26 41 26Z"></path>
        <path d="M29 14H23C22.4477 14 22 14.4477 22 15V21C22 21.5523 22.4477 22 23 22H29C29.5523 22 30 21.5523 30 21V15C30 14.4477 29.5523 14 29 14Z"></path>
        <path d="M41 14H35C34.4477 14 34 14.4477 34 15V21C34 21.5523 34.4477 22 35 22H41C41.5523 22 42 21.5523 42 21V15C42 14.4477 41.5523 14 41 14Z"></path>
    </symbol>
    <symbol xmlns="http://www.w3.org/2000/svg" viewBox="0 0 32 32" id="facebook">
        <path fill-rule="evenodd" clip-rule="evenodd" d="M0 16C0 7.16344 7.16344 0 16 0C24.8366 0 32 7.16344 32 16C32 24.8366 24.8366 32 16 32C7.16344 32 0 24.8366 0 16ZM16 8C20.4 8 24 11.6 24 16C24 20 21.1 23.4 17.1 24V18.3H19L19.4 16H17.2V14.5C17.2 13.9 17.5 13.3 18.5 13.3H19.5V11.3C19.5 11.3 18.6 11.1 17.7 11.1C15.9 11.1 14.7 12.2 14.7 14.2V16H12.7V18.3H14.7V23.9C10.9 23.3 8 20 8 16C8 11.6 11.6 8 16 8Z"/>
    </symbol>
    <symbol xmlns="http://www.w3.org/2000/svg" viewBox="0 0 64 64" id="greenspace">
        <path d="M61.7998 52.8L50.5998 36.8001C50.4135 36.5517 50.172 36.3501 49.8942 36.2112C49.6165 36.0723 49.3103 36.0001 48.9998 36.0001H25.9998V32.0001C28.1758 31.6734 30.1683 30.5938 31.6301 28.9492C33.092 27.3046 33.9306 25.1993 33.9998 23.0001C33.986 21.7321 33.6919 20.4828 33.1387 19.3418C32.5855 18.2008 31.7868 17.1962 30.7998 16.4001C31.5507 15.1884 31.9643 13.7981 31.9976 12.373C32.031 10.948 31.683 9.53986 30.9896 8.2944C30.2962 7.04893 29.2826 6.01136 28.0537 5.28901C26.8249 4.56667 25.4253 4.18579 23.9998 4.18579C22.5743 4.18579 21.1748 4.56667 19.9459 5.28901C18.717 6.01136 17.7034 7.04893 17.01 8.2944C16.3166 9.53986 15.9686 10.948 16.002 12.373C16.0354 13.7981 16.4489 15.1884 17.1998 16.4001C16.2128 17.1962 15.4141 18.2008 14.8609 19.3418C14.3077 20.4828 14.0136 21.7321 13.9998 23.0001C14.1144 25.1643 14.9734 27.2224 16.4312 28.826C17.8891 30.4297 19.8563 31.4803 21.9998 31.8001V36.0001H14.9998C14.6893 36.0001 14.3831 36.0723 14.1054 36.2112C13.8277 36.3501 13.5861 36.5517 13.3998 36.8001L2.19981 52.8C1.97695 53.0972 1.84124 53.4505 1.80789 53.8204C1.77453 54.1904 1.84485 54.5623 2.01095 54.8945C2.17706 55.2267 2.43239 55.5061 2.74834 55.7014C3.0643 55.8966 3.42838 56.0001 3.79981 56.0001H60.1998C60.5712 56.0001 60.9353 55.8966 61.2513 55.7014C61.5672 55.5061 61.8226 55.2267 61.9887 54.8945C62.1548 54.5623 62.2251 54.1904 62.1917 53.8204C62.1584 53.4505 62.0227 53.0972 61.7998 52.8V52.8ZM17.9998 23.0001C18.0305 22.2859 18.2273 21.5886 18.5744 20.9637C18.9216 20.3388 19.4096 19.8034 19.9998 19.4001C20.7079 18.75 21.1583 17.8667 21.2685 16.9118C21.3787 15.9569 21.1413 14.9943 20.5998 14.2001C20.1906 13.5405 19.9821 12.7761 19.9998 12.0001C19.9998 10.9392 20.4212 9.92177 21.1714 9.17162C21.9215 8.42148 22.9389 8.00005 23.9998 8.00005C25.0607 8.00005 26.0781 8.42148 26.8282 9.17162C27.5784 9.92177 27.9998 10.9392 27.9998 12.0001C27.9804 12.7081 27.7734 13.3983 27.3998 14.0001C26.8244 14.8341 26.587 15.8554 26.7355 16.8577C26.884 17.8601 27.4073 18.7687 28.1998 19.4001C28.7531 19.8244 29.2026 20.3691 29.5144 20.9927C29.8263 21.6164 29.9923 22.3028 29.9998 23.0001C29.9432 24.1255 29.5225 25.2021 28.8011 26.0678C28.0797 26.9335 27.0966 27.5414 25.9998 27.8001V22.0001C25.9998 21.4696 25.7891 20.9609 25.414 20.5858C25.0389 20.2108 24.5302 20.0001 23.9998 20.0001C23.4694 20.0001 22.9607 20.2108 22.5856 20.5858C22.2105 20.9609 21.9998 21.4696 21.9998 22.0001V27.8001C20.903 27.5414 19.9199 26.9335 19.1985 26.0678C18.4771 25.2021 18.0564 24.1255 17.9998 23.0001ZM7.59981 52.0001L15.9998 40.0001H21.9998V44.0001C21.9998 44.5305 22.2105 45.0392 22.5856 45.4143C22.9607 45.7893 23.4694 46.0001 23.9998 46.0001C24.5302 46.0001 25.0389 45.7893 25.414 45.4143C25.7891 45.0392 25.9998 44.5305 25.9998 44.0001V40.0001H47.9998L56.3998 52.0001H7.59981Z"></path>
    </symbol>
    <symbol xmlns="http://www.w3.org/2000/svg" viewBox="0 0 32 32" id="instagram">
        <path d="M16 18.8C14.5 18.8 13.2 17.6 13.2 16C13.2 14.5 14.4 13.2 16 13.2C17.5 13.2 18.8 14.4 18.8 16C18.8 17.5 17.5 18.8 16 18.8Z"/>
        <path fill-rule="evenodd" clip-rule="evenodd" d="M19.4 9.2H12.6C11.8 9.3 11.4 9.4 11.1 9.5C10.7 9.6 10.4 9.8 10.1 10.1C9.86261 10.3374 9.75045 10.5748 9.61489 10.8617C9.57916 10.9373 9.5417 11.0166 9.5 11.1C9.48453 11.1464 9.46667 11.1952 9.44752 11.2475C9.34291 11.5333 9.2 11.9238 9.2 12.6V19.4C9.3 20.2 9.4 20.6 9.5 20.9C9.6 21.3 9.8 21.6 10.1 21.9C10.3374 22.1374 10.5748 22.2495 10.8617 22.3851C10.9374 22.4209 11.0165 22.4583 11.1 22.5C11.1464 22.5155 11.1952 22.5333 11.2475 22.5525C11.5333 22.6571 11.9238 22.8 12.6 22.8H19.4C20.2 22.7 20.6 22.6 20.9 22.5C21.3 22.4 21.6 22.2 21.9 21.9C22.1374 21.6626 22.2495 21.4252 22.3851 21.1383C22.4209 21.0626 22.4583 20.9835 22.5 20.9C22.5155 20.8536 22.5333 20.8048 22.5525 20.7525C22.6571 20.4667 22.8 20.0762 22.8 19.4V12.6C22.7 11.8 22.6 11.4 22.5 11.1C22.4 10.7 22.2 10.4 21.9 10.1C21.6626 9.86261 21.4252 9.75045 21.1383 9.61488C21.0627 9.57918 20.9833 9.54167 20.9 9.5C20.8536 9.48453 20.8048 9.46666 20.7525 9.44752C20.4667 9.3429 20.0762 9.2 19.4 9.2ZM16 11.7C13.6 11.7 11.7 13.6 11.7 16C11.7 18.4 13.6 20.3 16 20.3C18.4 20.3 20.3 18.4 20.3 16C20.3 13.6 18.4 11.7 16 11.7ZM21.4 11.6C21.4 12.1523 20.9523 12.6 20.4 12.6C19.8477 12.6 19.4 12.1523 19.4 11.6C19.4 11.0477 19.8477 10.6 20.4 10.6C20.9523 10.6 21.4 11.0477 21.4 11.6Z"/>
        <path fill-rule="evenodd" clip-rule="evenodd" d="M0 16C0 7.16344 7.16344 0 16 0C24.8366 0 32 7.16344 32 16C32 24.8366 24.8366 32 16 32C7.16344 32 0 24.8366 0 16ZM12.6 7.7H19.4C20.3 7.8 20.9 7.9 21.4 8.1C22 8.4 22.4 8.6 22.9 9.1C23.4 9.6 23.7 10.1 23.9 10.6C24.1 11.1 24.3 11.7 24.3 12.6V19.4C24.2 20.3 24.1 20.9 23.9 21.4C23.6 22 23.4 22.4 22.9 22.9C22.4 23.4 21.9 23.7 21.4 23.9C20.9 24.1 20.3 24.3 19.4 24.3H12.6C11.7 24.2 11.1 24.1 10.6 23.9C10 23.6 9.6 23.4 9.1 22.9C8.6 22.4 8.3 21.9 8.1 21.4C7.9 20.9 7.7 20.3 7.7 19.4V12.6C7.8 11.7 7.9 11.1 8.1 10.6C8.4 10 8.6 9.6 9.1 9.1C9.6 8.6 10.1 8.3 10.6 8.1C11.1 7.9 11.7 7.7 12.6 7.7Z"/>
    </symbol>
    <symbol xmlns="http://www.w3.org/2000/svg" viewBox="0 0 135 20" id="logo-text">
        <path d="M0.32 19V1.18H4.962C5.72467 1.18 6.44333 1.23867 7.118 1.356C7.80733 1.47333 8.416 1.70067 8.944 2.038C9.472 2.36067 9.88267 2.83 10.176 3.446C10.484 4.04733 10.638 4.84667 10.638 5.844C10.638 6.56267 10.528 7.17133 10.308 7.67C10.1027 8.154 9.802 8.54267 9.406 8.836C9.02467 9.12933 8.56267 9.32733 8.02 9.43C8.70933 9.518 9.28867 9.74533 9.758 10.112C10.2273 10.464 10.5793 10.9407 10.814 11.542C11.0633 12.1433 11.188 12.8693 11.188 13.72C11.188 14.644 11.0633 15.4433 10.814 16.118C10.5793 16.778 10.2347 17.3207 9.78 17.746C9.32533 18.1713 8.76067 18.4867 8.086 18.692C7.426 18.8973 6.66333 19 5.798 19H0.32ZM4.258 16.25H5.094C5.95933 16.25 6.55333 16.03 6.876 15.59C7.21333 15.15 7.382 14.5047 7.382 13.654C7.382 12.9793 7.30867 12.444 7.162 12.048C7.01533 11.652 6.77333 11.366 6.436 11.19C6.09867 10.9993 5.644 10.904 5.072 10.904H4.258V16.25ZM4.258 8.308H5.028C5.62933 8.308 6.084 8.22 6.392 8.044C6.7 7.85333 6.90533 7.582 7.008 7.23C7.12533 6.878 7.184 6.45267 7.184 5.954C7.184 5.48467 7.096 5.096 6.92 4.788C6.75867 4.46533 6.50933 4.22333 6.172 4.062C5.84933 3.90067 5.43867 3.82 4.94 3.82H4.258V8.308ZM13.0336 19V1.18H17.6756C18.4383 1.18 19.1569 1.23867 19.8316 1.356C20.5209 1.47333 21.1296 1.70067 21.6576 2.038C22.1856 2.36067 22.5963 2.83 22.8896 3.446C23.1976 4.04733 23.3516 4.84667 23.3516 5.844C23.3516 6.56267 23.2416 7.17133 23.0216 7.67C22.8163 8.154 22.5156 8.54267 22.1196 8.836C21.7383 9.12933 21.2763 9.32733 20.7336 9.43C21.4229 9.518 22.0023 9.74533 22.4716 10.112C22.9409 10.464 23.2929 10.9407 23.5276 11.542C23.7769 12.1433 23.9016 12.8693 23.9016 13.72C23.9016 14.644 23.7769 15.4433 23.5276 16.118C23.2929 16.778 22.9483 17.3207 22.4936 17.746C22.0389 18.1713 21.4743 18.4867 20.7996 18.692C20.1396 18.8973 19.3769 19 18.5116 19H13.0336ZM16.9716 16.25H17.8076C18.6729 16.25 19.2669 16.03 19.5896 15.59C19.9269 15.15 20.0956 14.5047 20.0956 13.654C20.0956 12.9793 20.0223 12.444 19.8756 12.048C19.7289 11.652 19.4869 11.366 19.1496 11.19C18.8123 10.9993 18.3576 10.904 17.7856 10.904H16.9716V16.25ZM16.9716 8.308H17.7416C18.3429 8.308 18.7976 8.22 19.1056 8.044C19.4136 7.85333 19.6189 7.582 19.7216 7.23C19.8389 6.878 19.8976 6.45267 19.8976 5.954C19.8976 5.48467 19.8096 5.096 19.6336 4.788C19.4723 4.46533 19.2229 4.22333 18.8856 4.062C18.5629 3.90067 18.1523 3.82 17.6536 3.82H16.9716V8.308ZM36.2601 19.264C34.9108 19.264 33.8401 19.022 33.0481 18.538C32.2708 18.0393 31.7208 17.35 31.3981 16.47C31.0754 15.5753 30.9141 14.5267 30.9141 13.324V6.9C30.9141 5.668 31.0754 4.612 31.3981 3.732C31.7208 2.83733 32.2708 2.148 33.0481 1.664C33.8401 1.18 34.9108 0.937999 36.2601 0.937999C37.5801 0.937999 38.6068 1.158 39.3401 1.598C40.0881 2.02333 40.6161 2.62467 40.9241 3.402C41.2321 4.17933 41.3861 5.074 41.3861 6.086V7.626H37.5361V5.844C37.5361 5.492 37.5141 5.15467 37.4701 4.832C37.4408 4.50933 37.3381 4.24533 37.1621 4.04C36.9861 3.82 36.6854 3.71 36.2601 3.71C35.8494 3.71 35.5414 3.82 35.3361 4.04C35.1454 4.26 35.0208 4.53867 34.9621 4.876C34.9181 5.19867 34.8961 5.54333 34.8961 5.91V14.292C34.8961 14.688 34.9254 15.0547 34.9841 15.392C35.0574 15.7147 35.1894 15.9787 35.3801 16.184C35.5854 16.3747 35.8788 16.47 36.2601 16.47C36.6708 16.47 36.9641 16.3673 37.1401 16.162C37.3161 15.942 37.4261 15.6633 37.4701 15.326C37.5141 14.9887 37.5361 14.644 37.5361 14.292V12.422H41.3861V13.962C41.3861 14.974 41.2321 15.8833 40.9241 16.69C40.6308 17.482 40.1101 18.1127 39.3621 18.582C38.6288 19.0367 37.5948 19.264 36.2601 19.264ZM48.4366 19.264C47.1019 19.264 46.0459 19.0293 45.2686 18.56C44.4912 18.0907 43.9339 17.416 43.5966 16.536C43.2592 15.656 43.0906 14.6073 43.0906 13.39V6.768C43.0906 5.536 43.2592 4.48733 43.5966 3.622C43.9339 2.75667 44.4912 2.09667 45.2686 1.642C46.0459 1.17267 47.1019 0.937999 48.4366 0.937999C49.7859 0.937999 50.8492 1.17267 51.6266 1.642C52.4186 2.09667 52.9832 2.75667 53.3206 3.622C53.6579 4.48733 53.8266 5.536 53.8266 6.768V13.39C53.8266 14.6073 53.6579 15.656 53.3206 16.536C52.9832 17.416 52.4186 18.0907 51.6266 18.56C50.8492 19.0293 49.7859 19.264 48.4366 19.264ZM48.4366 16.47C48.8472 16.47 49.1479 16.3673 49.3386 16.162C49.5292 15.9567 49.6539 15.6927 49.7126 15.37C49.7712 15.0473 49.8006 14.7173 49.8006 14.38V5.8C49.8006 5.448 49.7712 5.118 49.7126 4.81C49.6539 4.48733 49.5292 4.22333 49.3386 4.018C49.1479 3.81267 48.8472 3.71 48.4366 3.71C48.0552 3.71 47.7692 3.81267 47.5786 4.018C47.3879 4.22333 47.2632 4.48733 47.2046 4.81C47.1459 5.118 47.1166 5.448 47.1166 5.8V14.38C47.1166 14.7173 47.1386 15.0473 47.1826 15.37C47.2412 15.6927 47.3586 15.9567 47.5346 16.162C47.7252 16.3673 48.0259 16.47 48.4366 16.47ZM56.0032 19V1.18H58.7752L62.4272 9.76V1.18H65.6832V19H63.0212L59.3692 9.76V19H56.0032ZM72.8452 19.264C71.7306 19.264 70.7992 19.066 70.0512 18.67C69.3032 18.274 68.7386 17.6653 68.3572 16.844C67.9759 16.008 67.7632 14.93 67.7192 13.61L71.0852 13.104C71.0999 13.8667 71.1659 14.4827 71.2832 14.952C71.4152 15.4213 71.5912 15.7587 71.8112 15.964C72.0459 16.1693 72.3246 16.272 72.6472 16.272C73.0579 16.272 73.3219 16.1327 73.4392 15.854C73.5712 15.5753 73.6372 15.282 73.6372 14.974C73.6372 14.2407 73.4612 13.6247 73.1092 13.126C72.7572 12.6127 72.2806 12.0993 71.6792 11.586L70.1392 10.244C69.4646 9.672 68.8926 9.02667 68.4232 8.308C67.9686 7.57467 67.7412 6.67267 67.7412 5.602C67.7412 4.09133 68.1886 2.94 69.0832 2.148C69.9779 1.34133 71.1952 0.937999 72.7352 0.937999C73.6886 0.937999 74.4512 1.09933 75.0232 1.422C75.6099 1.74467 76.0499 2.17 76.3432 2.698C76.6512 3.21133 76.8566 3.76133 76.9592 4.348C77.0766 4.92 77.1426 5.47 77.1572 5.998L73.7692 6.416C73.7546 5.888 73.7179 5.43333 73.6592 5.052C73.6152 4.656 73.5126 4.35533 73.3512 4.15C73.1899 3.93 72.9406 3.82 72.6032 3.82C72.2366 3.82 71.9652 3.974 71.7892 4.282C71.6279 4.59 71.5472 4.898 71.5472 5.206C71.5472 5.866 71.7012 6.40867 72.0092 6.834C72.3319 7.24467 72.7499 7.67733 73.2632 8.132L74.7372 9.43C75.5146 10.09 76.1672 10.838 76.6952 11.674C77.2379 12.51 77.5092 13.544 77.5092 14.776C77.5092 15.612 77.3186 16.3747 76.9372 17.064C76.5559 17.7387 76.0132 18.274 75.3092 18.67C74.6199 19.066 73.7986 19.264 72.8452 19.264ZM80.802 19V4.106H78.118V1.18H87.424V4.106H84.762V19H80.802ZM88.7729 19V1.18H93.6789C94.8816 1.18 95.9229 1.312 96.8029 1.576C97.6829 1.84 98.3649 2.31667 98.8489 3.006C99.3476 3.68067 99.5969 4.64133 99.5969 5.888C99.5969 6.62133 99.5382 7.274 99.4209 7.846C99.3036 8.418 99.0836 8.91667 98.7609 9.342C98.4529 9.75267 98.0056 10.0973 97.4189 10.376L99.8609 19H95.7909L93.8329 11.014H92.7109V19H88.7729ZM92.7109 8.748H93.8109C94.3682 8.748 94.8009 8.65267 95.1089 8.462C95.4169 8.25667 95.6296 7.97067 95.7469 7.604C95.8789 7.22267 95.9449 6.768 95.9449 6.24C95.9449 5.47733 95.8056 4.88333 95.5269 4.458C95.2482 4.03267 94.7349 3.82 93.9869 3.82H92.7109V8.748ZM106.785 19.264C105.421 19.264 104.35 19.044 103.573 18.604C102.81 18.1493 102.275 17.4967 101.967 16.646C101.659 15.7807 101.505 14.7247 101.505 13.478V1.18H105.399V14.072C105.399 14.4387 105.428 14.8053 105.487 15.172C105.546 15.5387 105.67 15.8393 105.861 16.074C106.066 16.3087 106.374 16.426 106.785 16.426C107.21 16.426 107.518 16.3087 107.709 16.074C107.9 15.8393 108.017 15.5387 108.061 15.172C108.12 14.8053 108.149 14.4387 108.149 14.072V1.18H112.065V13.478C112.065 14.7247 111.904 15.7807 111.581 16.646C111.273 17.4967 110.738 18.1493 109.975 18.604C109.212 19.044 108.149 19.264 106.785 19.264ZM119.454 19.264C118.105 19.264 117.034 19.022 116.242 18.538C115.465 18.0393 114.915 17.35 114.592 16.47C114.27 15.5753 114.108 14.5267 114.108 13.324V6.9C114.108 5.668 114.27 4.612 114.592 3.732C114.915 2.83733 115.465 2.148 116.242 1.664C117.034 1.18 118.105 0.937999 119.454 0.937999C120.774 0.937999 121.801 1.158 122.534 1.598C123.282 2.02333 123.81 2.62467 124.118 3.402C124.426 4.17933 124.58 5.074 124.58 6.086V7.626H120.73V5.844C120.73 5.492 120.708 5.15467 120.664 4.832C120.635 4.50933 120.532 4.24533 120.356 4.04C120.18 3.82 119.88 3.71 119.454 3.71C119.044 3.71 118.736 3.82 118.53 4.04C118.34 4.26 118.215 4.53867 118.156 4.876C118.112 5.19867 118.09 5.54333 118.09 5.91V14.292C118.09 14.688 118.12 15.0547 118.178 15.392C118.252 15.7147 118.384 15.9787 118.574 16.184C118.78 16.3747 119.073 16.47 119.454 16.47C119.865 16.47 120.158 16.3673 120.334 16.162C120.51 15.942 120.62 15.6633 120.664 15.326C120.708 14.9887 120.73 14.644 120.73 14.292V12.422H124.58V13.962C124.58 14.974 124.426 15.8833 124.118 16.69C123.825 17.482 123.304 18.1127 122.556 18.582C121.823 19.0367 120.789 19.264 119.454 19.264ZM128.133 19V4.106H125.449V1.18H134.755V4.106H132.093V19H128.133Z" fill="white"/>
    </symbol>
    <symbol xmlns="http://www.w3.org/2000/svg" viewBox="0 0 60 60" id="logo-icon">
        <g clip-path="url(#clip0_338_370)">
        <path fill-rule="evenodd" clip-rule="evenodd" d="M23.2501 19.4888C21.4294 18.2687 17.6329 18.4237 13.7885 20.0551C9.33147 21.9465 6.76525 26.3295 7.27121 28.5998C7.27121 28.5998 8.32132 31.1749 7.3706 28.9987L9.61949 34.5534L27.6037 31.4153L24.2283 20.4587L24.1411 20.4891C23.9515 20.0895 23.6495 19.7565 23.2501 19.4888L23.2501 19.4888Z" fill="white"></path>
        <path fill-rule="evenodd" clip-rule="evenodd" d="M26.6651 26.7324L26.8794 25.9332L24.3034 21.3401C24.3034 21.3401 22.3343 19.5275 18.8042 19.9137C15.2741 20.2999 14.8357 21.6072 14.8357 21.6072L16.7286 26.1625L26.6651 26.7324L26.6651 26.7324Z" fill="#003A7E"></path>
        <path fill-rule="evenodd" clip-rule="evenodd" d="M36.2312 7.31766C33.6637 7.18138 31.2957 7.27171 27.935 9.80775C24.0389 12.7479 22.0264 16.6295 23.1779 18.7799L23.1712 18.7942L23.257 18.9214C23.3089 19.005 23.3661 19.0982 23.4285 19.1758C23.4545 19.2081 23.4852 19.2365 23.5127 19.2673L27.9238 25.2828L44.7891 22.1619L46.4452 19.5473C45.7203 17.1126 45.4323 16.134 43.5022 11.6977C41.576 8.24191 38.601 7.81103 36.2312 7.31766L36.2312 7.31766Z" fill="white"></path>
        <path fill-rule="evenodd" clip-rule="evenodd" d="M44.2766 17.0854L44.6196 16.3486L42.4163 11.9311C42.4163 11.9311 40.6326 8.77183 36.8058 8.38479C32.979 7.99776 32.1794 9.2192 32.1794 9.2192L33.7416 14.372L44.2766 17.0854Z" fill="#003A7E"></path>
        <path fill-rule="evenodd" clip-rule="evenodd" d="M35.6884 9.85429L4.72418 33.6833L10.9691 50.3502L28.1726 55.5501L55.0194 34.2419L55.2758 34.0266L50.8784 21.0074L35.6884 9.85429Z" fill="#003A7E" stroke="white" stroke-width="0.999998"></path>
        <path fill-rule="evenodd" clip-rule="evenodd" d="M35.6887 9.85428L4.72454 33.5318L10.9694 50.3502L11.0061 50.3673L11.3857 50.0311L41.6452 25.8315L35.6887 9.85428Z" fill="white"></path>
        <path fill-rule="evenodd" clip-rule="evenodd" d="M41.3713 28.3113L15.9996 48.8665L27.7835 52.5689L50.8401 34.2491L41.3713 28.3113Z" fill="white" stroke="#003A7E" stroke-width="0.539117"></path>
        </g>
        <defs>
        <clipPath id="clip0_338_370">
            <rect width="60" height="60" fill="white"></rect>
        </clipPath>
        </defs>
    </symbol>
    <symbol xmlns="http://www.w3.org/2000/svg" viewBox="0 0 64 64" id="measure">
        <path d="M58 42H22V6C21.9984 5.47005 21.7872 4.96227 21.4125 4.58753C21.0377 4.2128 20.5299 4.00158 20 4H6C5.47005 4.00158 4.96227 4.2128 4.58753 4.58753C4.2128 4.96227 4.00158 5.47005 4 6V58C4.00158 58.5299 4.2128 59.0377 4.58753 59.4125C4.96227 59.7872 5.47005 59.9984 6 60H58C58.5299 59.9984 59.0377 59.7872 59.4125 59.4125C59.7872 59.0377 59.9984 58.5299 60 58V44C59.9984 43.4701 59.7872 42.9623 59.4125 42.5875C59.0377 42.2128 58.5299 42.0016 58 42V42ZM56 56H8V8H18V12H16C15.4696 12 14.9609 12.2107 14.5858 12.5858C14.2107 12.9609 14 13.4696 14 14C14 14.5304 14.2107 15.0391 14.5858 15.4142C14.9609 15.7893 15.4696 16 16 16H18V22H16C15.4696 22 14.9609 22.2107 14.5858 22.5858C14.2107 22.9609 14 23.4696 14 24C14 24.5304 14.2107 25.0391 14.5858 25.4142C14.9609 25.7893 15.4696 26 16 26H18V32H16C15.4696 32 14.9609 32.2107 14.5858 32.5858C14.2107 32.9609 14 33.4696 14 34C14 34.5304 14.2107 35.0391 14.5858 35.4142C14.9609 35.7893 15.4696 36 16 36H18V46H28V48C28 48.5304 28.2107 49.0391 28.5858 49.4142C28.9609 49.7893 29.4696 50 30 50C30.5304 50 31.0391 49.7893 31.4142 49.4142C31.7893 49.0391 32 48.5304 32 48V46H38V48C38 48.5304 38.2107 49.0391 38.5858 49.4142C38.9609 49.7893 39.4696 50 40 50C40.5304 50 41.0391 49.7893 41.4142 49.4142C41.7893 49.0391 42 48.5304 42 48V46H48V48C48 48.5304 48.2107 49.0391 48.5858 49.4142C48.9609 49.7893 49.4696 50 50 50C50.5304 50 51.0391 49.7893 51.4142 49.4142C51.7893 49.0391 52 48.5304 52 48V46H56V56Z"></path>
        <path d="M40.0764 29.1739C38.6146 29.1339 37.2226 28.5398 36.1824 27.5119C35.6982 27.0014 35.0335 26.7007 34.3304 26.6739C34.1055 26.656 33.8794 26.6859 33.6667 26.7614C33.4541 26.8369 33.2598 26.9564 33.0966 27.1121C32.9333 27.2679 32.8047 27.4563 32.7192 27.6651C32.6337 27.8739 32.5932 28.0984 32.6004 28.3239C32.6273 28.7665 32.7472 29.1985 32.9522 29.5917C33.1573 29.9849 33.4429 30.3305 33.7904 30.6059C35.0412 31.619 36.5668 32.2341 38.1704 32.3719V34.1419C38.1704 34.6347 38.3662 35.1072 38.7146 35.4557C39.0631 35.8041 39.5357 35.9999 40.0284 35.9999C40.5212 35.9999 40.9938 35.8041 41.3422 35.4557C41.6907 35.1072 41.8864 34.6347 41.8864 34.1419V32.3159C43.358 32.2203 44.7403 31.5769 45.7609 30.5125C46.7816 29.4482 47.3665 28.0401 47.4004 26.5659C47.4004 23.7959 45.7244 22.1059 42.3204 21.4419L39.7644 20.9159C38.0484 20.5759 37.2644 19.9279 37.2644 18.9159C37.2644 17.7799 38.2764 16.8759 39.8704 16.8759C40.5245 16.8698 41.1724 17.0027 41.7713 17.2658C42.3702 17.5289 42.9064 17.9161 43.3444 18.4019C43.8634 18.9262 44.5668 19.2269 45.3044 19.2399C45.507 19.2469 45.7089 19.2129 45.898 19.1398C46.0871 19.0667 46.2594 18.9561 46.4046 18.8146C46.5498 18.6732 46.6649 18.5038 46.7429 18.3167C46.8209 18.1296 46.8602 17.9286 46.8584 17.7259C46.8286 17.2884 46.7105 16.8616 46.5111 16.4711C46.3117 16.0806 46.0353 15.7345 45.6984 15.4539C44.6181 14.5285 43.2939 13.9341 41.8844 13.7419V11.8559C41.8686 11.3739 41.666 10.917 41.3195 10.5817C40.973 10.2463 40.5096 10.0588 40.0274 10.0588C39.5452 10.0588 39.0819 10.2463 38.7353 10.5817C38.3888 10.917 38.1862 11.3739 38.1704 11.8559V13.7099C36.7459 13.7922 35.4049 14.4087 34.415 15.4364C33.4251 16.4641 32.8593 17.8273 32.8304 19.2539C32.8304 22.0099 34.4784 23.7679 37.7504 24.4439L40.2904 24.9979C42.2384 25.4179 43.0084 26.0119 43.0084 27.0259C43.0084 28.3239 41.9804 29.1739 40.0764 29.1739V29.1739Z"></path>
    </symbol>
    <symbol xmlns="http://www.w3.org/2000/svg" viewBox="0 0 48 48" id="mobilephone">
        <path d="M24 42.25Q24.65 42.25 25.075 41.825Q25.5 41.4 25.5 40.75Q25.5 40.1 25.075 39.675Q24.65 39.25 24 39.25Q23.35 39.25 22.925 39.675Q22.5 40.1 22.5 40.75Q22.5 41.4 22.925 41.825Q23.35 42.25 24 42.25ZM13 35.5H35V9.5H13ZM13 46Q11.8 46 10.9 45.1Q10 44.2 10 43V5Q10 3.8 10.9 2.9Q11.8 2 13 2H35Q36.2 2 37.1 2.9Q38 3.8 38 5V43Q38 44.2 37.1 45.1Q36.2 46 35 46ZM13 6.5H35V5Q35 5 35 5Q35 5 35 5H13Q13 5 13 5Q13 5 13 5ZM13 5Q13 5 13 5Q13 5 13 5V6.5V5Q13 5 13 5Q13 5 13 5ZM13 38.5V43Q13 43 13 43Q13 43 13 43H35Q35 43 35 43Q35 43 35 43V38.5ZM13 43Q13 43 13 43Q13 43 13 43V38.5V43Q13 43 13 43Q13 43 13 43Z"></path>
    </symbol>
    <symbol xmlns="http://www.w3.org/2000/svg" viewBox="0 0 64 64" id="parking">
        <path d="M56 8V56H8V8H56ZM56 4H8C6.93913 4 5.92172 4.42143 5.17157 5.17157C4.42143 5.92172 4 6.93913 4 8V56C4 57.0609 4.42143 58.0783 5.17157 58.8284C5.92172 59.5786 6.93913 60 8 60H56C57.0609 60 58.0783 59.5786 58.8284 58.8284C59.5786 58.0783 60 57.0609 60 56V8C60 6.93913 59.5786 5.92172 58.8284 5.17157C58.0783 4.42143 57.0609 4 56 4Z"></path>
        <path d="M35.12 15.9999H22V47.9999H30V37.9999H35.04C36.5042 38.1035 37.9736 37.8918 39.349 37.3789C40.7244 36.8661 41.9737 36.0641 43.0126 35.0271C44.0515 33.9901 44.8558 32.7422 45.3711 31.3678C45.8865 29.9933 46.1009 28.5243 46 27.0599C46.1011 25.5968 45.8905 24.129 45.3819 22.7534C44.8734 21.3778 44.0786 20.1258 43.0501 19.0803C42.0216 18.0348 40.7829 17.2196 39.4158 16.6886C38.0488 16.1575 36.5845 15.9228 35.12 15.9999V15.9999ZM33.12 31.9999H30V21.9999H33.88C34.5528 21.9348 35.2316 22.0194 35.8679 22.2476C36.5041 22.4759 37.0819 22.8421 37.5599 23.3201C38.0378 23.798 38.404 24.3758 38.6323 25.0121C38.8605 25.6483 38.9451 26.3271 38.88 26.9999C38.88 30.6399 36.64 31.9999 33.02 31.9999H33.12Z"></path>
    </symbol>
    <symbol xmlns="http://www.w3.org/2000/svg" viewBox="0 0 48 48" id="play-button">
        <path d="M16 37.85V9.85L38 23.85ZM19 23.85ZM19 32.4 32.45 23.85 19 15.3Z"/>
    </symbol>
    <symbol xmlns="http://www.w3.org/2000/svg" viewBox="0 0 64 64" id="thermometer">
        <path d="M42 36.22V14C42 11.3478 40.9464 8.8043 39.0711 6.92893C37.1957 5.05357 34.6522 4 32 4C29.3478 4 26.8043 5.05357 24.9289 6.92893C23.0536 8.8043 22 11.3478 22 14V36.22C20.0707 38.1891 18.7656 40.684 18.2485 43.3919C17.7314 46.0997 18.0252 48.8999 19.0932 51.4415C20.1612 53.983 21.9557 56.1526 24.2517 57.6783C26.5478 59.2041 29.2432 60.018 32 60.018C34.7568 60.018 37.4522 59.2041 39.7483 57.6783C42.0443 56.1526 43.8389 53.983 44.9068 51.4415C45.9748 48.8999 46.2686 46.0997 45.7515 43.3919C45.2344 40.684 43.9293 38.1891 42 36.22V36.22ZM32 56C30.0308 55.9997 28.1056 55.4181 26.4656 54.328C24.8257 53.2379 23.5441 51.6879 22.7816 49.8723C22.0191 48.0568 21.8096 46.0565 22.1793 44.1224C22.549 42.1882 23.4816 40.4063 24.86 39L26 37.84V14C26 12.4087 26.6321 10.8826 27.7574 9.75736C28.8826 8.63214 30.4087 8 32 8C33.5913 8 35.1174 8.63214 36.2426 9.75736C37.3679 10.8826 38 12.4087 38 14V37.84L39.14 39C40.5184 40.4063 41.451 42.1882 41.8207 44.1224C42.1905 46.0565 41.9809 48.0568 41.2184 49.8723C40.4559 51.6879 39.1743 53.2379 37.5344 54.328C35.8944 55.4181 33.9692 55.9997 32 56V56Z"></path>
        <path d="M34 40.36V16C34 15.4696 33.7893 14.9609 33.4142 14.5858C33.0392 14.2107 32.5304 14 32 14C31.4696 14 30.9609 14.2107 30.5858 14.5858C30.2107 14.9609 30 15.4696 30 16V40.36C28.6656 40.8318 27.5409 41.7601 26.8247 42.981C26.1086 44.2018 25.8471 45.6365 26.0864 47.0315C26.3258 48.4265 27.0506 49.6919 28.1327 50.6042C29.2148 51.5165 30.5846 52.0169 32 52.0169C33.4154 52.0169 34.7852 51.5165 35.8673 50.6042C36.9495 49.6919 37.6743 48.4265 37.9136 47.0315C38.1529 45.6365 37.8914 44.2018 37.1753 42.981C36.4591 41.7601 35.3344 40.8318 34 40.36Z"></path>
    </symbol>
    <symbol width="40" height="41" viewBox="0 0 40 41" fill="none" xmlns="http://www.w3.org/2000/svg">
        <rect width="40" height="41" fill="#fff"/>
        <g clip-path="url(#clip0_0_1)">
        <rect width="428" height="5282" transform="translate(-262 -5090)" fill="#003A7E"/>
        <rect x="8.75" y="8.85742" width="22.5" height="22.5" fill="white"/>
        <path d="M23.25 20.1074L18 17.1074V23.1074L23.25 20.1074Z" fill="#003A7E"/>
        <path fill-rule="evenodd" clip-rule="evenodd" d="M0 20.1074C0 9.06173 8.95431 0.107422 20 0.107422C31.0457 0.107422 40 9.06173 40 20.1074C40 31.1531 31.0457 40.1074 20 40.1074C8.95431 40.1074 0 31.1531 0 20.1074ZM27.75 13.4824C28.625 13.7324 29.25 14.3574 29.5 15.2324C30 16.8574 30 20.1074 30 20.1074C30 20.1074 30 23.3574 29.625 24.9824C29.375 25.8574 28.75 26.4824 27.875 26.7324C26.25 27.1074 20 27.1074 20 27.1074C20 27.1074 13.625 27.1074 12.125 26.7324C11.25 26.4824 10.625 25.8574 10.375 24.9824C10 23.3574 10 20.1074 10 20.1074C10 20.1074 10 16.8574 10.25 15.2324C10.5 14.3574 11.125 13.7324 12 13.4824C13.625 13.1074 19.875 13.1074 19.875 13.1074C19.875 13.1074 26.25 13.1074 27.75 13.4824Z" fill="#003A7E"/>
        </g>
        <defs>
        <clipPath id="clip0_0_1">
        <rect width="428" height="5282" fill="white" transform="translate(-262 -5090)"/>
        </clipPath>
        </defs>
    </symbol>
    <symbol xmlns="http://www.w3.org/2000/svg" viewBox="0 0 32 32" id="twitter">
        <path fill-rule="evenodd" clip-rule="evenodd" d="M0 16C0 7.16344 7.16344 0 16 0C24.8366 0 32 7.16344 32 16C32 24.8366 24.8366 32 16 32C7.16344 32 0 24.8366 0 16ZM22.1 11.5C22.8 11.4 23.4 11.3 24 11C23.6 11.7 23 12.3 22.3 12.7C22.5 17.4 19.1 22.5 13 22.5C11.2 22.5 9.5 21.9 8 21C9.7 21.2 11.5 20.7 12.7 19.8C11.2 19.8 10 18.8 9.6 17.5C10.1 17.6 10.6 17.5 11.1 17.4C9.6 17 8.5 15.6 8.5 14.1C9 14.3 9.5 14.5 10 14.5C8.6 13.5 8.1 11.6 9 10.1C10.7 12.1 13.1 13.4 15.8 13.5C15.3 11.5 16.9 9.5 19 9.5C19.9 9.5 20.8 9.9 21.4 10.5C22.2 10.3 22.9 10.1 23.5 9.7C23.3 10.5 22.8 11.1 22.1 11.5Z"/>
    </symbol>
    <symbol xmlns="http://www.w3.org/2000/svg" viewBox="0 0 32 32" id="youtube">
        <path d="M18.6 16L14.4 13.6V18.4L18.6 16Z"/>
        <path fill-rule="evenodd" clip-rule="evenodd" d="M0 16C0 7.16344 7.16344 0 16 0C24.8366 0 32 7.16344 32 16C32 24.8366 24.8366 32 16 32C7.16344 32 0 24.8366 0 16ZM22.2 10.7C22.9 10.9 23.4 11.4 23.6 12.1C24 13.4 24 16 24 16C24 16 24 18.6 23.7 19.9C23.5 20.6 23 21.1 22.3 21.3C21 21.6 16 21.6 16 21.6C16 21.6 10.9 21.6 9.7 21.3C9 21.1 8.5 20.6 8.3 19.9C8 18.6 8 16 8 16C8 16 8 13.4 8.2 12.1C8.4 11.4 8.90001 10.9 9.60001 10.7C10.9 10.4 15.9 10.4 15.9 10.4C15.9 10.4 21 10.4 22.2 10.7Z"/>
    </symbol>

</svg>


